<?xml version="1.0" encoding="UTF-8" standalone="no"?>
<!DOCTYPE svg PUBLIC "-//W3C//DTD SVG 1.1//EN" "http://www.w3.org/Graphics/SVG/1.1/DTD/svg11.dtd">
<svg width="100%" height="100%" viewBox="0 0 24 14" version="1.1" xmlns="http://www.w3.org/2000/svg" xmlns:xlink="http://www.w3.org/1999/xlink" xml:space="preserve" xmlns:serif="http://www.serif.com/" style="fill-rule:evenodd;clip-rule:evenodd;stroke-linejoin:round;stroke-miterlimit:2;">
    <g transform="matrix(1,0,0,1,-2.84217e-14,-5.10149)">
        <g transform="matrix(8.26212,0,0,8.26212,-84.0985,-86.7742)">
            <g transform="matrix(1.02102,0,0,1.0453,-0.191517,1.54587)">
                <path d="M13.002,9.267C13.002,9.208 12.952,9.159 12.892,9.159L10.267,9.159C10.206,9.159 10.157,9.208 10.157,9.267L10.157,10.649C10.157,10.709 10.206,10.757 10.267,10.757L12.892,10.757C12.952,10.757 13.002,10.709 13.002,10.649L13.002,9.267Z"/>
            </g>
            <g>
                <g transform="matrix(4.5391e-17,-0.741292,1.56194,9.56412e-17,-7.04256,20.3275)">
                    <path d="M10.537,11.243C10.537,11.227 10.51,11.214 10.477,11.214L10.339,11.214C10.305,11.214 10.278,11.227 10.278,11.243L10.278,12.68C10.278,12.695 10.305,12.708 10.339,12.708L10.477,12.708C10.51,12.708 10.537,12.695 10.537,12.68L10.537,11.243Z" style="fill:white;"/>
                </g>
                <g transform="matrix(0.0338482,0,0,0.0338482,10.207,12.3101)">
                    <g transform="matrix(5,0,0,5,73.1351,10.6792)">
                    </g>
                    <text x="11.285px" y="10.679px" style="font-family:'JoystixMonospace-Regular', 'Joystix', monospace;font-size:5px;">Templa<tspan x="35.875px 40.015px " y="10.679px 10.679px ">te</tspan> engine</text>
                </g>
            </g>
            <g transform="matrix(0.198161,0,0,0.198161,8.17311,10.1857)">
                <g transform="matrix(5,0,0,5,23.7051,10.6792)">
                </g>
                <text x="11.285px" y="10.679px" style="font-family:'JoystixMonospace-Regular', 'Joystix', monospace;font-size:5px;fill:white;">ash</text>
            </g>
        </g>
    </g>
</svg>
